<?xml version="1.0" standalone="no"?>
<!DOCTYPE svg PUBLIC "-//W3C//DTD SVG 20010904//EN"
 "http://www.w3.org/TR/2001/REC-SVG-20010904/DTD/svg10.dtd">
<svg version="1.0" xmlns="http://www.w3.org/2000/svg"
 width="1024.000000pt" height="191.000000pt" viewBox="0 0 1024.000000 191.000000"
 preserveAspectRatio="xMidYMid meet">

<g transform="translate(0.000000,191.000000) scale(0.100000,-0.100000)"
fill="#000000" stroke="none">
<path d="M920 1454 c-181 -48 -323 -192 -359 -362 -65 -309 143 -580 449 -585
47 -1 108 2 135 6 l50 8 115 -223 c113 -220 116 -223 156 -237 38 -13 44 -13
75 5 23 13 38 33 47 59 15 45 7 64 -136 325 l-91 164 32 36 c72 79 114 179
124 295 11 132 -35 264 -125 365 -116 129 -309 187 -472 144z m224 -185 c67
-25 133 -86 166 -154 35 -70 35 -199 1 -265 -57 -110 -135 -161 -259 -168 -77
-4 -87 -2 -147 27 -82 40 -129 95 -155 179 -25 80 -25 114 0 194 51 167 226
250 394 187z"/>
<path d="M2407 1394 c-70 -17 -105 -34 -153 -77 -82 -71 -108 -201 -60 -303
40 -85 99 -120 285 -168 172 -45 200 -62 180 -114 -12 -33 -54 -45 -134 -38
-91 7 -128 18 -200 61 -32 20 -64 34 -70 31 -6 -2 -39 -40 -73 -84 l-61 -81
31 -26 c83 -70 229 -115 372 -115 223 0 360 92 382 258 14 109 -34 201 -134
255 -28 15 -110 43 -182 62 -154 39 -180 53 -180 95 0 38 40 60 108 60 61 0
170 -32 206 -61 15 -12 31 -18 35 -13 44 51 112 157 108 167 -9 23 -124 77
-194 92 -84 18 -190 18 -266 -1z"/>
<path d="M2972 1083 c5 -365 9 -388 86 -474 86 -96 193 -134 352 -126 148 7
247 55 317 154 62 87 66 114 69 456 l2 307 -126 0 -127 0 3 -250 c2 -146 -1
-274 -8 -307 -17 -95 -80 -140 -182 -131 -57 6 -93 29 -119 78 -17 31 -19 61
-19 322 l0 288 -126 0 -125 0 3 -317z"/>
<path d="M3880 950 l0 -450 125 0 126 0 -3 240 c-2 132 -1 240 2 239 3 0 90
-108 194 -240 l189 -239 114 0 113 0 0 450 0 450 -125 0 -126 0 1 -237 c0
-131 0 -242 0 -248 0 -5 -8 2 -18 17 -9 15 -96 127 -192 248 l-175 220 -112 0
-113 0 0 -450z"/>
<path d="M5113 1297 c-23 -56 -102 -249 -176 -428 -74 -179 -138 -335 -142
-347 l-7 -23 128 3 128 3 31 78 30 77 180 -2 179 -3 29 -77 30 -78 128 0 128
0 -24 63 c-13 34 -39 98 -57 142 -19 44 -90 218 -157 388 l-124 307 -131 0
-131 0 -42 -103z m229 -310 c28 -71 48 -130 45 -133 -2 -3 -52 -3 -109 -2
l-105 3 53 140 c29 77 54 142 54 145 1 3 4 -2 7 -10 3 -8 28 -73 55 -143z"/>
<path d="M5830 950 l0 -450 120 0 120 0 0 155 0 155 205 0 205 0 0 110 0 110
-205 0 -205 0 0 75 0 75 225 0 225 0 0 110 0 110 -345 0 -345 0 0 -450z"/>
<path d="M6620 950 l0 -450 120 0 120 0 0 450 0 450 -120 0 -120 0 0 -450z"/>
<path d="M6970 950 l0 -450 325 0 325 0 0 105 0 105 -205 0 -205 0 0 345 0
345 -120 0 -120 0 0 -450z"/>
</g>
</svg>
